<svg overflow="hidden" xml:space="preserve" xmlns:xlink="http://www.w3.org/1999/xlink" xmlns="http://www.w3.org/2000/svg" height="48" width="48"><defs><clipPath id="clip0"><rect height="48" width="48" y="336" x="616"></rect></clipPath></defs><g transform="translate(-616 -336)" clip-path="url(#clip0)"><path fill="#458E00" stroke="#458E00" d="M656.972 343.029C652.438 338.497 646.41 336 640.001 336 633.591 336 627.563 338.497 623.029 343.029 618.497 347.562 616 353.59 616 359.999 616 366.409 618.497 372.437 623.029 376.97 627.562 381.503 633.59 384 640.001 384 646.411 384 652.438 381.503 656.972 376.97 661.504 372.438 664.001 366.41 664.001 359.999 664.001 353.589 661.506 347.562 656.972 343.029ZM655.133 375.132C651.091 379.174 645.717 381.4 640.002 381.4 634.288 381.4 628.912 379.174 624.871 375.132 620.829 371.089 618.603 365.717 618.603 360.001 618.603 354.285 620.829 348.911 624.871 344.87 628.914 340.828 634.286 338.602 640.002 338.602 645.718 338.602 651.092 340.828 655.133 344.87 663.476 353.214 663.476 366.79 655.133 375.133L655.133 375.132Z"></path><g><path fill="#458E00" stroke="#458E00" d="M636.566 364.589 629.33 357.392 627.016 359.694 634.251 366.889 634.251 366.891 636.566 369.191 638.88 366.889 652.862 352.989 650.547 350.689 636.566 364.589Z"></path></g></g></svg>