<svg xmlns="http://www.w3.org/2000/svg" fill="none" viewBox="0 0 48 48" height="48" width="48">
<g clip-path="url(#clip0_1332_106868)">
<path fill="#458E00" d="M40.972 7.02945C36.4382 2.4971 30.4101 0 24.0007 0C17.5913 0 11.5632 2.4971 7.02945 7.02945C2.4971 11.5618 0 17.5899 0 23.9993C0 30.4087 2.4971 36.4368 7.02945 40.9705C11.5618 45.5029 17.5899 48 24.0007 48C30.4115 48 36.4382 45.5029 40.972 40.9705C45.5043 36.4382 48.0014 30.4101 48.0014 23.9993C48.0014 17.5885 45.5057 11.5618 40.972 7.02945ZM39.133 39.1316C35.0908 43.1739 29.7166 45.3998 24.0021 45.3998C18.2876 45.3998 12.912 43.1739 8.87121 39.1316C4.82895 35.0894 2.60303 29.7166 2.60303 24.0007C2.60303 18.2848 4.82895 12.9106 8.87121 8.86979C12.9135 4.82754 18.2862 2.60162 24.0021 2.60162C29.7181 2.60162 35.0922 4.82754 39.133 8.86979C47.476 17.2142 47.476 30.7901 39.133 39.133V39.1316Z"></path>
<g clip-path="url(#clip1_1332_106868)">
<path fill="#458E00" d="M20.5656 28.5892L13.3304 21.3921L11.0156 23.6938L18.2508 30.8895V30.8909L20.5656 33.1912L22.8804 30.8895L36.8623 16.9893L34.5475 14.689L20.5656 28.5892Z"></path>
</g>
</g>
<defs>
<clipPath id="clip0_1332_106868">
<rect fill="white" height="48" width="48"></rect>
</clipPath>
<clipPath id="clip1_1332_106868">
<rect transform="translate(11.0156 14.689)" fill="white" height="18.5023" width="25.8467"></rect>
</clipPath>
</defs>
</svg>
