<svg width="100" height="81" viewBox="0 0 100 81" fill="none" xmlns="http://www.w3.org/2000/svg">
<path d="M75.6487 56.9455L75.6494 56.9447C78.416 53.9805 80.5479 50.8599 82.0379 47.5819C83.5316 44.2959 84.5661 40.0901 85.1556 34.9811L85.2199 34.4238H84.6589H77.6277C71.6546 34.4238 67.0504 32.9315 63.7502 30.0085L63.7446 30.0035L63.7388 29.9987C60.3657 27.1878 58.6452 23.0008 58.6452 17.3457C58.6452 13.3836 60.1508 9.63876 63.2109 6.10052L63.2116 6.0997C66.1285 2.71231 70.1794 1 75.4304 1C83.7133 1 89.5348 3.68878 93.0298 8.97718C96.5741 14.4383 98.3679 21.6093 98.3679 30.5293C98.3679 36.8026 97.0174 42.4831 94.3242 47.5809L94.3225 47.5843C91.6087 52.8179 88.3155 57.4664 84.4433 61.5321C80.464 65.7056 76.2454 69.2446 71.7881 72.1515C67.5087 74.9424 63.8965 77.2442 60.9508 79.0576L56.1992 71.1383C60.5902 68.6056 64.1651 66.389 66.9203 64.4892C69.7913 62.6075 72.7004 60.0904 75.6487 56.9455ZM21.2312 1C29.514 1 35.3355 3.68873 38.8304 8.97702C42.3748 14.4382 44.1687 21.6092 44.1687 30.5293C44.1687 36.8026 42.8182 42.4831 40.125 47.5809L40.1232 47.5843C37.4096 52.8178 34.1164 57.4662 30.2443 61.5319C26.2649 65.7055 22.0462 69.2445 17.5889 72.1515C13.3095 74.9424 9.6973 77.2442 6.75155 79.0576L2 71.1383C6.39106 68.6056 9.96597 66.389 12.7212 64.4891C15.5921 62.6075 18.5012 60.0903 21.4495 56.9455C24.3125 53.8851 26.4944 50.7152 27.9852 47.4354L27.9881 47.4289C29.3825 44.2418 30.3673 40.0866 30.9564 34.9811L31.0207 34.4238H30.4597H23.4284C17.4554 34.4238 12.8512 32.9315 9.55098 30.0085L9.54534 30.0035L9.53955 29.9987C6.16651 27.1878 4.44602 23.0008 4.44602 17.3457C4.44602 13.3836 5.95159 9.63876 9.0117 6.10052L9.0124 6.0997C11.9293 2.71231 15.9802 1 21.2312 1Z" fill="white" stroke="#001D1A" stroke-width="2"/>
</svg>
