<svg width="379" height="6" viewBox="0 0 379 6" fill="none" xmlns="http://www.w3.org/2000/svg">
<path d="M4.50013 4.49951L3.28223 3.27848" stroke="#17AA8B" stroke-miterlimit="10"/>
<path d="M1.49988 4.5L2.71778 3.27897" stroke="#17AA8B" stroke-miterlimit="10"/>
<path d="M1.49988 1.50035L2.71778 2.72119" stroke="#17AA8B" stroke-miterlimit="10"/>
<path d="M4.50001 1.49986L3.2821 2.7207" stroke="#17AA8B" stroke-miterlimit="10"/>
<path d="M25.2149 4.49951L23.9969 3.27848" stroke="#17AA8B" stroke-miterlimit="10"/>
<path d="M22.2146 4.5L23.4325 3.27897" stroke="#17AA8B" stroke-miterlimit="10"/>
<path d="M22.2146 1.50035L23.4325 2.72119" stroke="#17AA8B" stroke-miterlimit="10"/>
<path d="M25.2147 1.49986L23.9968 2.7207" stroke="#17AA8B" stroke-miterlimit="10"/>
<path d="M45.9296 4.49951L44.7117 3.27848" stroke="#17AA8B" stroke-miterlimit="10"/>
<path d="M42.9293 4.5L44.1472 3.27897" stroke="#17AA8B" stroke-miterlimit="10"/>
<path d="M42.9293 1.50035L44.1472 2.72119" stroke="#17AA8B" stroke-miterlimit="10"/>
<path d="M45.9295 1.49986L44.7115 2.7207" stroke="#17AA8B" stroke-miterlimit="10"/>
<path d="M66.6444 4.49951L65.4265 3.27848" stroke="#17AA8B" stroke-miterlimit="10"/>
<path d="M63.6442 4.5L64.8621 3.27897" stroke="#17AA8B" stroke-miterlimit="10"/>
<path d="M63.6442 1.50035L64.8621 2.72119" stroke="#17AA8B" stroke-miterlimit="10"/>
<path d="M66.6443 1.49986L65.4264 2.7207" stroke="#17AA8B" stroke-miterlimit="10"/>
<path d="M87.3591 4.49951L86.1412 3.27848" stroke="#17AA8B" stroke-miterlimit="10"/>
<path d="M84.3589 4.5L85.5768 3.27897" stroke="#17AA8B" stroke-miterlimit="10"/>
<path d="M84.3589 1.50035L85.5768 2.72119" stroke="#17AA8B" stroke-miterlimit="10"/>
<path d="M87.359 1.49986L86.1411 2.7207" stroke="#17AA8B" stroke-miterlimit="10"/>
<path d="M108.074 4.49951L106.856 3.27848" stroke="#17AA8B" stroke-miterlimit="10"/>
<path d="M105.074 4.5L106.292 3.27897" stroke="#17AA8B" stroke-miterlimit="10"/>
<path d="M105.074 1.50035L106.292 2.72119" stroke="#17AA8B" stroke-miterlimit="10"/>
<path d="M108.074 1.49986L106.856 2.7207" stroke="#17AA8B" stroke-miterlimit="10"/>
<path d="M128.789 4.49951L127.571 3.27848" stroke="#17AA8B" stroke-miterlimit="10"/>
<path d="M125.788 4.5L127.006 3.27897" stroke="#17AA8B" stroke-miterlimit="10"/>
<path d="M125.788 1.50035L127.006 2.72119" stroke="#17AA8B" stroke-miterlimit="10"/>
<path d="M128.788 1.49986L127.571 2.7207" stroke="#17AA8B" stroke-miterlimit="10"/>
<path d="M8.68324 4.49951L7.46533 3.27848" stroke="#17AA8B" stroke-miterlimit="10"/>
<path d="M5.68298 4.5L6.90089 3.27897" stroke="#17AA8B" stroke-miterlimit="10"/>
<path d="M5.68298 1.50035L6.90089 2.72119" stroke="#17AA8B" stroke-miterlimit="10"/>
<path d="M8.68312 1.49986L7.46521 2.7207" stroke="#17AA8B" stroke-miterlimit="10"/>
<path d="M29.3981 4.49951L28.1802 3.27848" stroke="#17AA8B" stroke-miterlimit="10"/>
<path d="M26.3978 4.5L27.6157 3.27897" stroke="#17AA8B" stroke-miterlimit="10"/>
<path d="M26.3978 1.50035L27.6157 2.72119" stroke="#17AA8B" stroke-miterlimit="10"/>
<path d="M29.398 1.49986L28.1801 2.7207" stroke="#17AA8B" stroke-miterlimit="10"/>
<path d="M50.1128 4.49951L48.8949 3.27848" stroke="#17AA8B" stroke-miterlimit="10"/>
<path d="M47.1125 4.5L48.3305 3.27897" stroke="#17AA8B" stroke-miterlimit="10"/>
<path d="M47.1125 1.50035L48.3305 2.72119" stroke="#17AA8B" stroke-miterlimit="10"/>
<path d="M50.1127 1.49986L48.8948 2.7207" stroke="#17AA8B" stroke-miterlimit="10"/>
<path d="M70.8275 4.49951L69.6096 3.27848" stroke="#17AA8B" stroke-miterlimit="10"/>
<path d="M67.8273 4.5L69.0452 3.27897" stroke="#17AA8B" stroke-miterlimit="10"/>
<path d="M67.8273 1.50035L69.0452 2.72119" stroke="#17AA8B" stroke-miterlimit="10"/>
<path d="M70.8274 1.49986L69.6095 2.7207" stroke="#17AA8B" stroke-miterlimit="10"/>
<path d="M91.5422 4.49951L90.3243 3.27848" stroke="#17AA8B" stroke-miterlimit="10"/>
<path d="M88.542 4.5L89.7599 3.27897" stroke="#17AA8B" stroke-miterlimit="10"/>
<path d="M88.542 1.50035L89.7599 2.72119" stroke="#17AA8B" stroke-miterlimit="10"/>
<path d="M91.5421 1.49986L90.3242 2.7207" stroke="#17AA8B" stroke-miterlimit="10"/>
<path d="M112.257 4.49951L111.039 3.27848" stroke="#17AA8B" stroke-miterlimit="10"/>
<path d="M109.257 4.5L110.475 3.27897" stroke="#17AA8B" stroke-miterlimit="10"/>
<path d="M109.257 1.50035L110.475 2.72119" stroke="#17AA8B" stroke-miterlimit="10"/>
<path d="M112.257 1.49986L111.039 2.7207" stroke="#17AA8B" stroke-miterlimit="10"/>
<path d="M132.972 4.49951L131.754 3.27848" stroke="#17AA8B" stroke-miterlimit="10"/>
<path d="M129.972 4.5L131.189 3.27897" stroke="#17AA8B" stroke-miterlimit="10"/>
<path d="M129.972 1.50035L131.189 2.72119" stroke="#17AA8B" stroke-miterlimit="10"/>
<path d="M132.972 1.49986L131.754 2.7207" stroke="#17AA8B" stroke-miterlimit="10"/>
<path d="M12.8665 4.49951L11.6486 3.27848" stroke="#17AA8B" stroke-miterlimit="10"/>
<path d="M9.86621 4.5L11.0841 3.27897" stroke="#17AA8B" stroke-miterlimit="10"/>
<path d="M9.86621 1.50035L11.0841 2.72119" stroke="#17AA8B" stroke-miterlimit="10"/>
<path d="M12.8663 1.49986L11.6484 2.7207" stroke="#17AA8B" stroke-miterlimit="10"/>
<path d="M33.5812 4.49951L32.3633 3.27848" stroke="#17AA8B" stroke-miterlimit="10"/>
<path d="M30.5809 4.5L31.7988 3.27897" stroke="#17AA8B" stroke-miterlimit="10"/>
<path d="M30.5809 1.50035L31.7988 2.72119" stroke="#17AA8B" stroke-miterlimit="10"/>
<path d="M33.5811 1.49986L32.3632 2.7207" stroke="#17AA8B" stroke-miterlimit="10"/>
<path d="M54.296 4.49951L53.0781 3.27848" stroke="#17AA8B" stroke-miterlimit="10"/>
<path d="M51.2958 4.5L52.5137 3.27897" stroke="#17AA8B" stroke-miterlimit="10"/>
<path d="M51.2958 1.50035L52.5137 2.72119" stroke="#17AA8B" stroke-miterlimit="10"/>
<path d="M54.2959 1.49986L53.078 2.7207" stroke="#17AA8B" stroke-miterlimit="10"/>
<path d="M75.0108 4.49951L73.7928 3.27848" stroke="#17AA8B" stroke-miterlimit="10"/>
<path d="M72.0105 4.5L73.2284 3.27897" stroke="#17AA8B" stroke-miterlimit="10"/>
<path d="M72.0105 1.50035L73.2284 2.72119" stroke="#17AA8B" stroke-miterlimit="10"/>
<path d="M75.0106 1.49986L73.7927 2.7207" stroke="#17AA8B" stroke-miterlimit="10"/>
<path d="M95.7255 4.49951L94.5076 3.27848" stroke="#17AA8B" stroke-miterlimit="10"/>
<path d="M92.7252 4.5L93.9431 3.27897" stroke="#17AA8B" stroke-miterlimit="10"/>
<path d="M92.7252 1.50035L93.9431 2.72119" stroke="#17AA8B" stroke-miterlimit="10"/>
<path d="M95.7254 1.49986L94.5074 2.7207" stroke="#17AA8B" stroke-miterlimit="10"/>
<path d="M116.44 4.49951L115.222 3.27848" stroke="#17AA8B" stroke-miterlimit="10"/>
<path d="M113.44 4.5L114.658 3.27897" stroke="#17AA8B" stroke-miterlimit="10"/>
<path d="M113.44 1.50035L114.658 2.72119" stroke="#17AA8B" stroke-miterlimit="10"/>
<path d="M116.44 1.49986L115.222 2.7207" stroke="#17AA8B" stroke-miterlimit="10"/>
<path d="M137.155 4.49951L135.937 3.27848" stroke="#17AA8B" stroke-miterlimit="10"/>
<path d="M134.155 4.5L135.373 3.27897" stroke="#17AA8B" stroke-miterlimit="10"/>
<path d="M134.155 1.50035L135.373 2.72119" stroke="#17AA8B" stroke-miterlimit="10"/>
<path d="M137.155 1.49986L135.937 2.7207" stroke="#17AA8B" stroke-miterlimit="10"/>
<path d="M17.0497 4.49951L15.8318 3.27848" stroke="#17AA8B" stroke-miterlimit="10"/>
<path d="M14.0494 4.5L15.2673 3.27897" stroke="#17AA8B" stroke-miterlimit="10"/>
<path d="M14.0494 1.50035L15.2673 2.72119" stroke="#17AA8B" stroke-miterlimit="10"/>
<path d="M17.0496 1.49986L15.8317 2.7207" stroke="#17AA8B" stroke-miterlimit="10"/>
<path d="M37.7644 4.49951L36.5465 3.27848" stroke="#17AA8B" stroke-miterlimit="10"/>
<path d="M34.7642 4.5L35.9821 3.27897" stroke="#17AA8B" stroke-miterlimit="10"/>
<path d="M34.7642 1.50035L35.9821 2.72119" stroke="#17AA8B" stroke-miterlimit="10"/>
<path d="M37.7643 1.49986L36.5464 2.7207" stroke="#17AA8B" stroke-miterlimit="10"/>
<path d="M58.4791 4.49951L57.2612 3.27848" stroke="#17AA8B" stroke-miterlimit="10"/>
<path d="M55.4789 4.5L56.6968 3.27897" stroke="#17AA8B" stroke-miterlimit="10"/>
<path d="M55.4789 1.50035L56.6968 2.72119" stroke="#17AA8B" stroke-miterlimit="10"/>
<path d="M58.479 1.49986L57.2611 2.7207" stroke="#17AA8B" stroke-miterlimit="10"/>
<path d="M79.1939 4.49951L77.976 3.27848" stroke="#17AA8B" stroke-miterlimit="10"/>
<path d="M76.1936 4.5L77.4115 3.27897" stroke="#17AA8B" stroke-miterlimit="10"/>
<path d="M76.1936 1.50035L77.4115 2.72119" stroke="#17AA8B" stroke-miterlimit="10"/>
<path d="M79.1937 1.49986L77.9758 2.7207" stroke="#17AA8B" stroke-miterlimit="10"/>
<path d="M99.9086 4.49951L98.6907 3.27848" stroke="#17AA8B" stroke-miterlimit="10"/>
<path d="M96.9083 4.5L98.1262 3.27897" stroke="#17AA8B" stroke-miterlimit="10"/>
<path d="M96.9083 1.50035L98.1262 2.72119" stroke="#17AA8B" stroke-miterlimit="10"/>
<path d="M99.9085 1.49986L98.6906 2.7207" stroke="#17AA8B" stroke-miterlimit="10"/>
<path d="M120.623 4.49951L119.406 3.27848" stroke="#17AA8B" stroke-miterlimit="10"/>
<path d="M117.623 4.5L118.841 3.27897" stroke="#17AA8B" stroke-miterlimit="10"/>
<path d="M117.623 1.50035L118.841 2.72119" stroke="#17AA8B" stroke-miterlimit="10"/>
<path d="M120.623 1.49986L119.405 2.7207" stroke="#17AA8B" stroke-miterlimit="10"/>
<path d="M141.338 4.49951L140.12 3.27848" stroke="#17AA8B" stroke-miterlimit="10"/>
<path d="M138.338 4.5L139.556 3.27897" stroke="#17AA8B" stroke-miterlimit="10"/>
<path d="M138.338 1.50035L139.556 2.72119" stroke="#17AA8B" stroke-miterlimit="10"/>
<path d="M141.338 1.49986L140.12 2.7207" stroke="#17AA8B" stroke-miterlimit="10"/>
<path d="M21.2328 4.49951L20.0149 3.27848" stroke="#17AA8B" stroke-miterlimit="10"/>
<path d="M18.2325 4.5L19.4504 3.27897" stroke="#17AA8B" stroke-miterlimit="10"/>
<path d="M18.2325 1.50035L19.4504 2.72119" stroke="#17AA8B" stroke-miterlimit="10"/>
<path d="M21.2327 1.49986L20.0148 2.7207" stroke="#17AA8B" stroke-miterlimit="10"/>
<path d="M41.9475 4.49951L40.7296 3.27848" stroke="#17AA8B" stroke-miterlimit="10"/>
<path d="M38.9473 4.5L40.1652 3.27897" stroke="#17AA8B" stroke-miterlimit="10"/>
<path d="M38.9473 1.50035L40.1652 2.72119" stroke="#17AA8B" stroke-miterlimit="10"/>
<path d="M41.9474 1.49986L40.7295 2.7207" stroke="#17AA8B" stroke-miterlimit="10"/>
<path d="M62.6622 4.49951L61.4443 3.27848" stroke="#17AA8B" stroke-miterlimit="10"/>
<path d="M59.662 4.5L60.8799 3.27897" stroke="#17AA8B" stroke-miterlimit="10"/>
<path d="M59.662 1.50035L60.8799 2.72119" stroke="#17AA8B" stroke-miterlimit="10"/>
<path d="M62.6621 1.49986L61.4442 2.7207" stroke="#17AA8B" stroke-miterlimit="10"/>
<path d="M83.3771 4.49951L82.1592 3.27848" stroke="#17AA8B" stroke-miterlimit="10"/>
<path d="M80.3768 4.5L81.5947 3.27897" stroke="#17AA8B" stroke-miterlimit="10"/>
<path d="M80.3768 1.50035L81.5947 2.72119" stroke="#17AA8B" stroke-miterlimit="10"/>
<path d="M83.377 1.49986L82.1591 2.7207" stroke="#17AA8B" stroke-miterlimit="10"/>
<path d="M104.092 4.49951L102.874 3.27848" stroke="#17AA8B" stroke-miterlimit="10"/>
<path d="M101.092 4.5L102.309 3.27897" stroke="#17AA8B" stroke-miterlimit="10"/>
<path d="M101.092 1.50035L102.309 2.72119" stroke="#17AA8B" stroke-miterlimit="10"/>
<path d="M104.092 1.49986L102.874 2.7207" stroke="#17AA8B" stroke-miterlimit="10"/>
<path d="M124.807 4.49951L123.589 3.27848" stroke="#17AA8B" stroke-miterlimit="10"/>
<path d="M121.806 4.5L123.024 3.27897" stroke="#17AA8B" stroke-miterlimit="10"/>
<path d="M121.806 1.50035L123.024 2.72119" stroke="#17AA8B" stroke-miterlimit="10"/>
<path d="M124.806 1.49986L123.589 2.7207" stroke="#17AA8B" stroke-miterlimit="10"/>
<path d="M145.521 4.49951L144.303 3.27848" stroke="#17AA8B" stroke-miterlimit="10"/>
<path d="M142.521 4.5L143.739 3.27897" stroke="#17AA8B" stroke-miterlimit="10"/>
<path d="M142.521 1.50035L143.739 2.72119" stroke="#17AA8B" stroke-miterlimit="10"/>
<path d="M145.521 1.49986L144.303 2.7207" stroke="#17AA8B" stroke-miterlimit="10"/>
<path d="M149.5 4.49951L148.282 3.27848" stroke="#17AA8B" stroke-miterlimit="10"/>
<path d="M146.5 4.5L147.718 3.27897" stroke="#17AA8B" stroke-miterlimit="10"/>
<path d="M146.5 1.50035L147.718 2.72119" stroke="#17AA8B" stroke-miterlimit="10"/>
<path d="M149.5 1.49986L148.282 2.7207" stroke="#17AA8B" stroke-miterlimit="10"/>
<path d="M170.215 4.49951L168.997 3.27848" stroke="#17AA8B" stroke-miterlimit="10"/>
<path d="M167.215 4.5L168.433 3.27897" stroke="#17AA8B" stroke-miterlimit="10"/>
<path d="M167.215 1.50035L168.433 2.72119" stroke="#17AA8B" stroke-miterlimit="10"/>
<path d="M170.215 1.49986L168.997 2.7207" stroke="#17AA8B" stroke-miterlimit="10"/>
<path d="M190.93 4.49951L189.712 3.27848" stroke="#17AA8B" stroke-miterlimit="10"/>
<path d="M187.929 4.5L189.147 3.27897" stroke="#17AA8B" stroke-miterlimit="10"/>
<path d="M187.929 1.50035L189.147 2.72119" stroke="#17AA8B" stroke-miterlimit="10"/>
<path d="M190.929 1.49986L189.712 2.7207" stroke="#17AA8B" stroke-miterlimit="10"/>
<path d="M211.644 4.49951L210.427 3.27848" stroke="#17AA8B" stroke-miterlimit="10"/>
<path d="M208.644 4.5L209.862 3.27897" stroke="#17AA8B" stroke-miterlimit="10"/>
<path d="M208.644 1.50035L209.862 2.72119" stroke="#17AA8B" stroke-miterlimit="10"/>
<path d="M211.644 1.49986L210.426 2.7207" stroke="#17AA8B" stroke-miterlimit="10"/>
<path d="M232.359 4.49951L231.141 3.27848" stroke="#17AA8B" stroke-miterlimit="10"/>
<path d="M229.359 4.5L230.577 3.27897" stroke="#17AA8B" stroke-miterlimit="10"/>
<path d="M229.359 1.50035L230.577 2.72119" stroke="#17AA8B" stroke-miterlimit="10"/>
<path d="M232.359 1.49986L231.141 2.7207" stroke="#17AA8B" stroke-miterlimit="10"/>
<path d="M253.074 4.49951L251.856 3.27848" stroke="#17AA8B" stroke-miterlimit="10"/>
<path d="M250.074 4.5L251.292 3.27897" stroke="#17AA8B" stroke-miterlimit="10"/>
<path d="M250.074 1.50035L251.292 2.72119" stroke="#17AA8B" stroke-miterlimit="10"/>
<path d="M253.074 1.49986L251.856 2.7207" stroke="#17AA8B" stroke-miterlimit="10"/>
<path d="M273.789 4.49951L272.571 3.27848" stroke="#17AA8B" stroke-miterlimit="10"/>
<path d="M270.788 4.5L272.006 3.27897" stroke="#17AA8B" stroke-miterlimit="10"/>
<path d="M270.788 1.50035L272.006 2.72119" stroke="#17AA8B" stroke-miterlimit="10"/>
<path d="M273.789 1.49986L272.571 2.7207" stroke="#17AA8B" stroke-miterlimit="10"/>
<path d="M153.683 4.49951L152.465 3.27848" stroke="#17AA8B" stroke-miterlimit="10"/>
<path d="M150.683 4.5L151.901 3.27897" stroke="#17AA8B" stroke-miterlimit="10"/>
<path d="M150.683 1.50035L151.901 2.72119" stroke="#17AA8B" stroke-miterlimit="10"/>
<path d="M153.683 1.49986L152.465 2.7207" stroke="#17AA8B" stroke-miterlimit="10"/>
<path d="M174.398 4.49951L173.18 3.27848" stroke="#17AA8B" stroke-miterlimit="10"/>
<path d="M171.398 4.5L172.616 3.27897" stroke="#17AA8B" stroke-miterlimit="10"/>
<path d="M171.398 1.50035L172.616 2.72119" stroke="#17AA8B" stroke-miterlimit="10"/>
<path d="M174.398 1.49986L173.18 2.7207" stroke="#17AA8B" stroke-miterlimit="10"/>
<path d="M195.113 4.49951L193.895 3.27848" stroke="#17AA8B" stroke-miterlimit="10"/>
<path d="M192.113 4.5L193.33 3.27897" stroke="#17AA8B" stroke-miterlimit="10"/>
<path d="M192.113 1.50035L193.33 2.72119" stroke="#17AA8B" stroke-miterlimit="10"/>
<path d="M195.113 1.49986L193.895 2.7207" stroke="#17AA8B" stroke-miterlimit="10"/>
<path d="M215.828 4.49951L214.61 3.27848" stroke="#17AA8B" stroke-miterlimit="10"/>
<path d="M212.827 4.5L214.045 3.27897" stroke="#17AA8B" stroke-miterlimit="10"/>
<path d="M212.827 1.50035L214.045 2.72119" stroke="#17AA8B" stroke-miterlimit="10"/>
<path d="M215.827 1.49986L214.609 2.7207" stroke="#17AA8B" stroke-miterlimit="10"/>
<path d="M236.542 4.49951L235.324 3.27848" stroke="#17AA8B" stroke-miterlimit="10"/>
<path d="M233.542 4.5L234.76 3.27897" stroke="#17AA8B" stroke-miterlimit="10"/>
<path d="M233.542 1.50035L234.76 2.72119" stroke="#17AA8B" stroke-miterlimit="10"/>
<path d="M236.542 1.49986L235.324 2.7207" stroke="#17AA8B" stroke-miterlimit="10"/>
<path d="M257.257 4.49951L256.039 3.27848" stroke="#17AA8B" stroke-miterlimit="10"/>
<path d="M254.257 4.5L255.475 3.27897" stroke="#17AA8B" stroke-miterlimit="10"/>
<path d="M254.257 1.50035L255.475 2.72119" stroke="#17AA8B" stroke-miterlimit="10"/>
<path d="M257.257 1.49986L256.039 2.7207" stroke="#17AA8B" stroke-miterlimit="10"/>
<path d="M277.972 4.49951L276.754 3.27848" stroke="#17AA8B" stroke-miterlimit="10"/>
<path d="M274.972 4.5L276.19 3.27897" stroke="#17AA8B" stroke-miterlimit="10"/>
<path d="M274.972 1.50035L276.19 2.72119" stroke="#17AA8B" stroke-miterlimit="10"/>
<path d="M277.972 1.49986L276.754 2.7207" stroke="#17AA8B" stroke-miterlimit="10"/>
<path d="M157.866 4.49951L156.649 3.27848" stroke="#17AA8B" stroke-miterlimit="10"/>
<path d="M154.866 4.5L156.084 3.27897" stroke="#17AA8B" stroke-miterlimit="10"/>
<path d="M154.866 1.50035L156.084 2.72119" stroke="#17AA8B" stroke-miterlimit="10"/>
<path d="M157.866 1.49986L156.648 2.7207" stroke="#17AA8B" stroke-miterlimit="10"/>
<path d="M178.581 4.49951L177.363 3.27848" stroke="#17AA8B" stroke-miterlimit="10"/>
<path d="M175.581 4.5L176.799 3.27897" stroke="#17AA8B" stroke-miterlimit="10"/>
<path d="M175.581 1.50035L176.799 2.72119" stroke="#17AA8B" stroke-miterlimit="10"/>
<path d="M178.581 1.49986L177.363 2.7207" stroke="#17AA8B" stroke-miterlimit="10"/>
<path d="M199.296 4.49951L198.078 3.27848" stroke="#17AA8B" stroke-miterlimit="10"/>
<path d="M196.296 4.5L197.514 3.27897" stroke="#17AA8B" stroke-miterlimit="10"/>
<path d="M196.296 1.50035L197.514 2.72119" stroke="#17AA8B" stroke-miterlimit="10"/>
<path d="M199.296 1.49986L198.078 2.7207" stroke="#17AA8B" stroke-miterlimit="10"/>
<path d="M220.011 4.49951L218.793 3.27848" stroke="#17AA8B" stroke-miterlimit="10"/>
<path d="M217.01 4.5L218.228 3.27897" stroke="#17AA8B" stroke-miterlimit="10"/>
<path d="M217.01 1.50035L218.228 2.72119" stroke="#17AA8B" stroke-miterlimit="10"/>
<path d="M220.011 1.49986L218.793 2.7207" stroke="#17AA8B" stroke-miterlimit="10"/>
<path d="M240.725 4.49951L239.508 3.27848" stroke="#17AA8B" stroke-miterlimit="10"/>
<path d="M237.725 4.5L238.943 3.27897" stroke="#17AA8B" stroke-miterlimit="10"/>
<path d="M237.725 1.50035L238.943 2.72119" stroke="#17AA8B" stroke-miterlimit="10"/>
<path d="M240.725 1.49986L239.508 2.7207" stroke="#17AA8B" stroke-miterlimit="10"/>
<path d="M261.44 4.49951L260.222 3.27848" stroke="#17AA8B" stroke-miterlimit="10"/>
<path d="M258.44 4.5L259.658 3.27897" stroke="#17AA8B" stroke-miterlimit="10"/>
<path d="M258.44 1.50035L259.658 2.72119" stroke="#17AA8B" stroke-miterlimit="10"/>
<path d="M261.44 1.49986L260.222 2.7207" stroke="#17AA8B" stroke-miterlimit="10"/>
<path d="M282.155 4.49951L280.937 3.27848" stroke="#17AA8B" stroke-miterlimit="10"/>
<path d="M279.155 4.5L280.373 3.27897" stroke="#17AA8B" stroke-miterlimit="10"/>
<path d="M279.155 1.50035L280.373 2.72119" stroke="#17AA8B" stroke-miterlimit="10"/>
<path d="M282.155 1.49986L280.937 2.7207" stroke="#17AA8B" stroke-miterlimit="10"/>
<path d="M162.05 4.49951L160.832 3.27848" stroke="#17AA8B" stroke-miterlimit="10"/>
<path d="M159.049 4.5L160.267 3.27897" stroke="#17AA8B" stroke-miterlimit="10"/>
<path d="M159.049 1.50035L160.267 2.72119" stroke="#17AA8B" stroke-miterlimit="10"/>
<path d="M162.05 1.49986L160.832 2.7207" stroke="#17AA8B" stroke-miterlimit="10"/>
<path d="M182.764 4.49951L181.547 3.27848" stroke="#17AA8B" stroke-miterlimit="10"/>
<path d="M179.764 4.5L180.982 3.27897" stroke="#17AA8B" stroke-miterlimit="10"/>
<path d="M179.764 1.50035L180.982 2.72119" stroke="#17AA8B" stroke-miterlimit="10"/>
<path d="M182.764 1.49986L181.546 2.7207" stroke="#17AA8B" stroke-miterlimit="10"/>
<path d="M203.479 4.49951L202.261 3.27848" stroke="#17AA8B" stroke-miterlimit="10"/>
<path d="M200.479 4.5L201.697 3.27897" stroke="#17AA8B" stroke-miterlimit="10"/>
<path d="M200.479 1.50035L201.697 2.72119" stroke="#17AA8B" stroke-miterlimit="10"/>
<path d="M203.479 1.49986L202.261 2.7207" stroke="#17AA8B" stroke-miterlimit="10"/>
<path d="M224.194 4.49951L222.976 3.27848" stroke="#17AA8B" stroke-miterlimit="10"/>
<path d="M221.194 4.5L222.412 3.27897" stroke="#17AA8B" stroke-miterlimit="10"/>
<path d="M221.194 1.50035L222.412 2.72119" stroke="#17AA8B" stroke-miterlimit="10"/>
<path d="M224.194 1.49986L222.976 2.7207" stroke="#17AA8B" stroke-miterlimit="10"/>
<path d="M244.909 4.49951L243.691 3.27848" stroke="#17AA8B" stroke-miterlimit="10"/>
<path d="M241.908 4.5L243.126 3.27897" stroke="#17AA8B" stroke-miterlimit="10"/>
<path d="M241.908 1.50035L243.126 2.72119" stroke="#17AA8B" stroke-miterlimit="10"/>
<path d="M244.909 1.49986L243.691 2.7207" stroke="#17AA8B" stroke-miterlimit="10"/>
<path d="M265.623 4.49951L264.406 3.27848" stroke="#17AA8B" stroke-miterlimit="10"/>
<path d="M262.623 4.5L263.841 3.27897" stroke="#17AA8B" stroke-miterlimit="10"/>
<path d="M262.623 1.50035L263.841 2.72119" stroke="#17AA8B" stroke-miterlimit="10"/>
<path d="M265.623 1.49986L264.405 2.7207" stroke="#17AA8B" stroke-miterlimit="10"/>
<path d="M286.338 4.49951L285.12 3.27848" stroke="#17AA8B" stroke-miterlimit="10"/>
<path d="M283.338 4.5L284.556 3.27897" stroke="#17AA8B" stroke-miterlimit="10"/>
<path d="M283.338 1.50035L284.556 2.72119" stroke="#17AA8B" stroke-miterlimit="10"/>
<path d="M286.338 1.49986L285.12 2.7207" stroke="#17AA8B" stroke-miterlimit="10"/>
<path d="M166.233 4.49951L165.015 3.27848" stroke="#17AA8B" stroke-miterlimit="10"/>
<path d="M163.233 4.5L164.45 3.27897" stroke="#17AA8B" stroke-miterlimit="10"/>
<path d="M163.233 1.50035L164.45 2.72119" stroke="#17AA8B" stroke-miterlimit="10"/>
<path d="M166.233 1.49986L165.015 2.7207" stroke="#17AA8B" stroke-miterlimit="10"/>
<path d="M186.948 4.49951L185.73 3.27848" stroke="#17AA8B" stroke-miterlimit="10"/>
<path d="M183.947 4.5L185.165 3.27897" stroke="#17AA8B" stroke-miterlimit="10"/>
<path d="M183.947 1.50035L185.165 2.72119" stroke="#17AA8B" stroke-miterlimit="10"/>
<path d="M186.947 1.49986L185.729 2.7207" stroke="#17AA8B" stroke-miterlimit="10"/>
<path d="M207.662 4.49951L206.444 3.27848" stroke="#17AA8B" stroke-miterlimit="10"/>
<path d="M204.662 4.5L205.88 3.27897" stroke="#17AA8B" stroke-miterlimit="10"/>
<path d="M204.662 1.50035L205.88 2.72119" stroke="#17AA8B" stroke-miterlimit="10"/>
<path d="M207.662 1.49986L206.444 2.7207" stroke="#17AA8B" stroke-miterlimit="10"/>
<path d="M228.377 4.49951L227.159 3.27848" stroke="#17AA8B" stroke-miterlimit="10"/>
<path d="M225.377 4.5L226.595 3.27897" stroke="#17AA8B" stroke-miterlimit="10"/>
<path d="M225.377 1.50035L226.595 2.72119" stroke="#17AA8B" stroke-miterlimit="10"/>
<path d="M228.377 1.49986L227.159 2.7207" stroke="#17AA8B" stroke-miterlimit="10"/>
<path d="M249.092 4.49951L247.874 3.27848" stroke="#17AA8B" stroke-miterlimit="10"/>
<path d="M246.092 4.5L247.31 3.27897" stroke="#17AA8B" stroke-miterlimit="10"/>
<path d="M246.092 1.50035L247.31 2.72119" stroke="#17AA8B" stroke-miterlimit="10"/>
<path d="M249.092 1.49986L247.874 2.7207" stroke="#17AA8B" stroke-miterlimit="10"/>
<path d="M269.807 4.49951L268.589 3.27848" stroke="#17AA8B" stroke-miterlimit="10"/>
<path d="M266.806 4.5L268.024 3.27897" stroke="#17AA8B" stroke-miterlimit="10"/>
<path d="M266.806 1.50035L268.024 2.72119" stroke="#17AA8B" stroke-miterlimit="10"/>
<path d="M269.806 1.49986L268.589 2.7207" stroke="#17AA8B" stroke-miterlimit="10"/>
<path d="M290.521 4.49951L289.303 3.27848" stroke="#17AA8B" stroke-miterlimit="10"/>
<path d="M287.521 4.5L288.739 3.27897" stroke="#17AA8B" stroke-miterlimit="10"/>
<path d="M287.521 1.50035L288.739 2.72119" stroke="#17AA8B" stroke-miterlimit="10"/>
<path d="M290.521 1.49986L289.303 2.7207" stroke="#17AA8B" stroke-miterlimit="10"/>
<path d="M294.5 4.49951L293.282 3.27848" stroke="#17AA8B" stroke-miterlimit="10"/>
<path d="M291.5 4.5L292.718 3.27897" stroke="#17AA8B" stroke-miterlimit="10"/>
<path d="M291.5 1.50035L292.718 2.72119" stroke="#17AA8B" stroke-miterlimit="10"/>
<path d="M294.5 1.49986L293.282 2.7207" stroke="#17AA8B" stroke-miterlimit="10"/>
<path d="M315.215 4.49951L313.997 3.27848" stroke="#17AA8B" stroke-miterlimit="10"/>
<path d="M312.215 4.5L313.433 3.27897" stroke="#17AA8B" stroke-miterlimit="10"/>
<path d="M312.215 1.50035L313.433 2.72119" stroke="#17AA8B" stroke-miterlimit="10"/>
<path d="M315.215 1.49986L313.997 2.7207" stroke="#17AA8B" stroke-miterlimit="10"/>
<path d="M335.93 4.49951L334.712 3.27848" stroke="#17AA8B" stroke-miterlimit="10"/>
<path d="M332.929 4.5L334.147 3.27897" stroke="#17AA8B" stroke-miterlimit="10"/>
<path d="M332.929 1.50035L334.147 2.72119" stroke="#17AA8B" stroke-miterlimit="10"/>
<path d="M335.93 1.49986L334.712 2.7207" stroke="#17AA8B" stroke-miterlimit="10"/>
<path d="M356.644 4.49951L355.426 3.27848" stroke="#17AA8B" stroke-miterlimit="10"/>
<path d="M353.644 4.5L354.862 3.27897" stroke="#17AA8B" stroke-miterlimit="10"/>
<path d="M353.644 1.50035L354.862 2.72119" stroke="#17AA8B" stroke-miterlimit="10"/>
<path d="M356.644 1.49986L355.426 2.7207" stroke="#17AA8B" stroke-miterlimit="10"/>
<path d="M377.359 4.49951L376.141 3.27848" stroke="#17AA8B" stroke-miterlimit="10"/>
<path d="M374.359 4.5L375.577 3.27897" stroke="#17AA8B" stroke-miterlimit="10"/>
<path d="M374.359 1.50035L375.577 2.72119" stroke="#17AA8B" stroke-miterlimit="10"/>
<path d="M377.359 1.49986L376.141 2.7207" stroke="#17AA8B" stroke-miterlimit="10"/>
<path d="M298.683 4.49951L297.465 3.27848" stroke="#17AA8B" stroke-miterlimit="10"/>
<path d="M295.683 4.5L296.901 3.27897" stroke="#17AA8B" stroke-miterlimit="10"/>
<path d="M295.683 1.50035L296.901 2.72119" stroke="#17AA8B" stroke-miterlimit="10"/>
<path d="M298.683 1.49986L297.465 2.7207" stroke="#17AA8B" stroke-miterlimit="10"/>
<path d="M319.398 4.49951L318.18 3.27848" stroke="#17AA8B" stroke-miterlimit="10"/>
<path d="M316.398 4.5L317.616 3.27897" stroke="#17AA8B" stroke-miterlimit="10"/>
<path d="M316.398 1.50035L317.616 2.72119" stroke="#17AA8B" stroke-miterlimit="10"/>
<path d="M319.398 1.49986L318.18 2.7207" stroke="#17AA8B" stroke-miterlimit="10"/>
<path d="M340.113 4.49951L338.895 3.27848" stroke="#17AA8B" stroke-miterlimit="10"/>
<path d="M337.113 4.5L338.331 3.27897" stroke="#17AA8B" stroke-miterlimit="10"/>
<path d="M337.113 1.50035L338.331 2.72119" stroke="#17AA8B" stroke-miterlimit="10"/>
<path d="M340.113 1.49986L338.895 2.7207" stroke="#17AA8B" stroke-miterlimit="10"/>
<path d="M360.828 4.49951L359.61 3.27848" stroke="#17AA8B" stroke-miterlimit="10"/>
<path d="M357.827 4.5L359.045 3.27897" stroke="#17AA8B" stroke-miterlimit="10"/>
<path d="M357.827 1.50035L359.045 2.72119" stroke="#17AA8B" stroke-miterlimit="10"/>
<path d="M360.827 1.49986L359.61 2.7207" stroke="#17AA8B" stroke-miterlimit="10"/>
<path d="M302.866 4.49951L301.649 3.27848" stroke="#17AA8B" stroke-miterlimit="10"/>
<path d="M299.866 4.5L301.084 3.27897" stroke="#17AA8B" stroke-miterlimit="10"/>
<path d="M299.866 1.50035L301.084 2.72119" stroke="#17AA8B" stroke-miterlimit="10"/>
<path d="M302.866 1.49986L301.648 2.7207" stroke="#17AA8B" stroke-miterlimit="10"/>
<path d="M323.581 4.49951L322.363 3.27848" stroke="#17AA8B" stroke-miterlimit="10"/>
<path d="M320.581 4.5L321.799 3.27897" stroke="#17AA8B" stroke-miterlimit="10"/>
<path d="M320.581 1.50035L321.799 2.72119" stroke="#17AA8B" stroke-miterlimit="10"/>
<path d="M323.581 1.49986L322.363 2.7207" stroke="#17AA8B" stroke-miterlimit="10"/>
<path d="M344.296 4.49951L343.078 3.27848" stroke="#17AA8B" stroke-miterlimit="10"/>
<path d="M341.296 4.5L342.514 3.27897" stroke="#17AA8B" stroke-miterlimit="10"/>
<path d="M341.296 1.50035L342.514 2.72119" stroke="#17AA8B" stroke-miterlimit="10"/>
<path d="M344.296 1.49986L343.078 2.7207" stroke="#17AA8B" stroke-miterlimit="10"/>
<path d="M365.011 4.49951L363.793 3.27848" stroke="#17AA8B" stroke-miterlimit="10"/>
<path d="M362.011 4.5L363.228 3.27897" stroke="#17AA8B" stroke-miterlimit="10"/>
<path d="M362.011 1.50035L363.228 2.72119" stroke="#17AA8B" stroke-miterlimit="10"/>
<path d="M365.011 1.49986L363.793 2.7207" stroke="#17AA8B" stroke-miterlimit="10"/>
<path d="M307.05 4.49951L305.832 3.27848" stroke="#17AA8B" stroke-miterlimit="10"/>
<path d="M304.049 4.5L305.267 3.27897" stroke="#17AA8B" stroke-miterlimit="10"/>
<path d="M304.049 1.50035L305.267 2.72119" stroke="#17AA8B" stroke-miterlimit="10"/>
<path d="M307.05 1.49986L305.832 2.7207" stroke="#17AA8B" stroke-miterlimit="10"/>
<path d="M327.764 4.49951L326.547 3.27848" stroke="#17AA8B" stroke-miterlimit="10"/>
<path d="M324.764 4.5L325.982 3.27897" stroke="#17AA8B" stroke-miterlimit="10"/>
<path d="M324.764 1.50035L325.982 2.72119" stroke="#17AA8B" stroke-miterlimit="10"/>
<path d="M327.764 1.49986L326.546 2.7207" stroke="#17AA8B" stroke-miterlimit="10"/>
<path d="M348.479 4.49951L347.261 3.27848" stroke="#17AA8B" stroke-miterlimit="10"/>
<path d="M345.479 4.5L346.697 3.27897" stroke="#17AA8B" stroke-miterlimit="10"/>
<path d="M345.479 1.50035L346.697 2.72119" stroke="#17AA8B" stroke-miterlimit="10"/>
<path d="M348.479 1.49986L347.261 2.7207" stroke="#17AA8B" stroke-miterlimit="10"/>
<path d="M369.194 4.49951L367.976 3.27848" stroke="#17AA8B" stroke-miterlimit="10"/>
<path d="M366.194 4.5L367.412 3.27897" stroke="#17AA8B" stroke-miterlimit="10"/>
<path d="M366.194 1.50035L367.412 2.72119" stroke="#17AA8B" stroke-miterlimit="10"/>
<path d="M369.194 1.49986L367.976 2.7207" stroke="#17AA8B" stroke-miterlimit="10"/>
<path d="M311.233 4.49951L310.015 3.27848" stroke="#17AA8B" stroke-miterlimit="10"/>
<path d="M308.233 4.5L309.451 3.27897" stroke="#17AA8B" stroke-miterlimit="10"/>
<path d="M308.233 1.50035L309.451 2.72119" stroke="#17AA8B" stroke-miterlimit="10"/>
<path d="M311.233 1.49986L310.015 2.7207" stroke="#17AA8B" stroke-miterlimit="10"/>
<path d="M331.948 4.49951L330.73 3.27848" stroke="#17AA8B" stroke-miterlimit="10"/>
<path d="M328.947 4.5L330.165 3.27897" stroke="#17AA8B" stroke-miterlimit="10"/>
<path d="M328.947 1.50035L330.165 2.72119" stroke="#17AA8B" stroke-miterlimit="10"/>
<path d="M331.947 1.49986L330.73 2.7207" stroke="#17AA8B" stroke-miterlimit="10"/>
<path d="M352.662 4.49951L351.444 3.27848" stroke="#17AA8B" stroke-miterlimit="10"/>
<path d="M349.662 4.5L350.88 3.27897" stroke="#17AA8B" stroke-miterlimit="10"/>
<path d="M349.662 1.50035L350.88 2.72119" stroke="#17AA8B" stroke-miterlimit="10"/>
<path d="M352.662 1.49986L351.444 2.7207" stroke="#17AA8B" stroke-miterlimit="10"/>
<path d="M373.377 4.49951L372.159 3.27848" stroke="#17AA8B" stroke-miterlimit="10"/>
<path d="M370.377 4.5L371.595 3.27897" stroke="#17AA8B" stroke-miterlimit="10"/>
<path d="M370.377 1.50035L371.595 2.72119" stroke="#17AA8B" stroke-miterlimit="10"/>
<path d="M373.377 1.49986L372.159 2.7207" stroke="#17AA8B" stroke-miterlimit="10"/>
</svg>
