<svg width="98" height="80" viewBox="0 0 98 80" fill="none" xmlns="http://www.w3.org/2000/svg">
<path d="M74.3394 56.4455L74.3401 56.4447C77.1067 53.4805 79.2386 50.3599 80.7286 47.0819C82.2223 43.7959 83.2568 39.5901 83.8463 34.4811L83.9106 33.9238H83.3496H76.3184C70.3453 33.9238 65.7411 32.4315 62.4409 29.5085L62.4353 29.5035L62.4295 29.4987C59.0564 26.6878 57.3359 22.5008 57.3359 16.8457C57.3359 12.8836 58.8415 9.13876 61.9016 5.60052L61.9023 5.5997C64.8192 2.21231 68.8701 0.5 74.1211 0.5C82.404 0.5 88.2255 3.18878 91.7205 8.47718C95.2648 13.9383 97.0586 21.1093 97.0586 30.0293C97.0586 36.3026 95.7081 41.9831 93.0149 47.0809L93.0132 47.0843C90.2994 52.3179 87.0062 56.9664 83.134 61.0321C79.1547 65.2056 74.9361 68.7446 70.4788 71.6515C66.1994 74.4424 62.5872 76.7442 59.6415 78.5576L54.8899 70.6383C59.2809 68.1056 62.8558 65.889 65.611 63.9892C68.482 62.1075 71.3911 59.5904 74.3394 56.4455ZM19.9219 0.5C28.2047 0.5 34.0262 3.18873 37.5211 8.47702C41.0655 13.9382 42.8594 21.1092 42.8594 30.0293C42.8594 36.3026 41.5089 41.9831 38.8157 47.0809L38.8139 47.0843C36.1003 52.3178 32.8071 56.9662 28.935 61.0319C24.9556 65.2055 20.7369 68.7445 16.2796 71.6515C12.0002 74.4424 8.388 76.7442 5.44225 78.5576L0.690697 70.6383C5.08176 68.1056 8.65667 65.889 11.4119 63.9891C14.2828 62.1075 17.1919 59.5903 20.1402 56.4455L20.1405 56.4451C23.0035 53.3847 25.1851 50.2152 26.6759 46.9354L26.6788 46.9289C28.0732 43.7418 29.058 39.5866 29.6471 34.4811L29.7114 33.9238H29.1504H22.1191C16.1461 33.9238 11.5419 32.4315 8.24168 29.5085L8.23604 29.5035L8.23025 29.4987C4.85721 26.6878 3.13672 22.5008 3.13672 16.8457C3.13672 12.8836 4.64229 9.13876 7.7024 5.60052L7.7031 5.5997C10.62 2.21231 14.6709 0.5 19.9219 0.5Z" fill="white" stroke="#0C4E40"/>
</svg>
